<?xml version="1.0" encoding="utf-8" standalone="no"?>
<!DOCTYPE svg PUBLIC "-//W3C//DTD SVG 1.1//EN"
  "http://www.w3.org/Graphics/SVG/1.1/DTD/svg11.dtd">
<svg xmlns:xlink="http://www.w3.org/1999/xlink" width="184.32pt" height="184.32pt" viewBox="0 0 184.32 184.32" xmlns="http://www.w3.org/2000/svg" version="1.1">
 <metadata>
  <rdf:RDF xmlns:dc="http://purl.org/dc/elements/1.1/" xmlns:cc="http://creativecommons.org/ns#" xmlns:rdf="http://www.w3.org/1999/02/22-rdf-syntax-ns#">
   <cc:Work>
    <dc:type rdf:resource="http://purl.org/dc/dcmitype/StillImage"/>
    <dc:date>2026-03-25T01:37:44.491630</dc:date>
    <dc:format>image/svg+xml</dc:format>
    <dc:creator>
     <cc:Agent>
      <dc:title>Matplotlib v3.10.8, https://matplotlib.org/</dc:title>
     </cc:Agent>
    </dc:creator>
   </cc:Work>
  </rdf:RDF>
 </metadata>
 <defs>
  <style type="text/css">*{stroke-linejoin: round; stroke-linecap: butt}</style>
 </defs>
 <g id="figure_1">
  <g id="patch_1">
   <path d="M 0 184.32 
L 184.32 184.32 
L 184.32 0 
L 0 0 
L 0 184.32 
z
" style="fill: none; opacity: 0"/>
  </g>
  <g id="axes_1">
   <g id="line2d_1">
    <path d="M 103.547032 16.481525 
L 101.653248 14.379002 
L 99.951501 12.787985 
L 98.510846 11.685423 
L 97.007199 10.778315 
L 95.451951 10.100304 
L 93.859917 9.676759 
L 92.248334 9.523614 
L 90.635725 9.646647 
L 89.040679 10.041215 
L 87.480634 10.692467 
L 85.970719 11.576019 
L 84.522744 12.659064 
L 82.811118 14.232342 
L 80.905815 16.324333 
L 77.766259 20.220217 
L 75.894619 22.387208 
L 74.547099 23.659439 
L 73.142856 24.654252 
L 71.951964 25.238269 
L 70.682322 25.635965 
L 69.320881 25.859321 
L 67.478397 25.925791 
L 65.059673 25.771169 
L 56.847842 25.048568 
L 54.521042 25.132399 
L 52.725139 25.37686 
L 51.023931 25.804683 
L 49.449182 26.43135 
L 48.029169 27.264061 
L 46.787174 28.301635 
L 45.740163 29.534816 
L 44.897758 30.946959 
L 44.261528 32.515054 
L 43.824666 34.211023 
L 43.572072 36.003229 
L 43.479872 38.327646 
L 43.616405 41.154017 
L 44.326922 50.465711 
L 44.0822 52.188638 
L 43.693016 53.462327 
L 43.117863 54.656556 
L 42.353847 55.788277 
L 41.144721 57.145479 
L 39.369791 58.745489 
L 32.395297 64.649544 
L 30.856764 66.379413 
L 29.811225 67.840735 
L 28.972458 69.36191 
L 28.371667 70.93038 
L 28.031377 72.530459 
L 27.964406 74.14438 
L 28.17328 75.753467 
L 28.650123 77.339361 
L 29.37701 78.885229 
L 30.326786 80.376876 
L 31.773259 82.149455 
L 33.43039 83.810086 
L 35.928342 85.950978 
L 40.888881 90.060061 
L 42.148005 91.40942 
L 43.128308 92.817574 
L 43.700507 94.012924 
L 44.086859 95.287968 
L 44.299923 96.655469 
L 44.355788 98.505919 
L 44.192816 100.933773 
L 43.485994 108.686996 
L 43.537207 111.0224 
L 43.830026 113.272303 
L 44.269907 114.96651 
L 44.909329 116.532372 
L 45.754964 117.941881 
L 46.805115 119.172115 
L 48.050041 120.206539 
L 49.472665 121.036018 
L 51.049619 121.659501 
L 52.752558 122.084319 
L 54.549676 122.326081 
L 56.877249 122.40714 
L 59.703198 122.261725 
L 68.625842 121.545285 
L 70.371855 121.752675 
L 71.662013 122.108094 
L 72.869958 122.647863 
L 74.011956 123.376699 
L 75.376505 124.544938 
L 76.97692 126.279841 
L 83.503462 133.897383 
L 85.261042 135.377981 
L 86.74219 136.362726 
L 88.27966 137.130095 
L 89.859813 137.651459 
L 91.466193 137.907237 
L 93.080619 137.887787 
L 94.684382 137.593843 
L 96.259474 137.036482 
L 97.78977 136.236622 
L 99.262109 135.224065 
L 101.007282 133.716733 
L 102.952641 131.667486 
L 105.313751 128.793782 
L 108.025867 125.499152 
L 109.636285 123.911783 
L 111.033003 122.888079 
L 112.215185 122.280399 
L 113.474175 121.859878 
L 114.823592 121.615696 
L 116.650167 121.527587 
L 119.050503 121.664855 
L 127.707245 122.408682 
L 130.027484 122.302347 
L 131.813366 122.036085 
L 133.500448 121.584087 
L 135.057313 120.931885 
L 136.456229 120.073331 
L 137.674637 119.010641 
L 138.696438 117.754038 
L 139.512987 116.321025 
L 140.123752 114.735322 
L 140.536587 113.025538 
L 140.767607 111.22364 
L 140.837679 108.893076 
L 140.683605 106.067731 
L 139.966456 97.537615 
L 140.137558 95.768255 
L 140.459712 94.461204 
L 140.964264 93.238967 
L 141.65774 92.086006 
L 142.784388 90.713165 
L 144.172734 89.377597 
L 146.806274 87.213749 
L 150.387037 84.266619 
L 152.40887 82.299301 
L 153.877242 80.536245 
L 154.849394 79.051243 
L 155.602138 77.510672 
L 156.107377 75.928374 
L 156.34613 74.320947 
L 156.309394 72.70664 
L 155.998556 71.104155 
L 155.425329 69.531417 
L 154.611216 68.004393 
L 153.586536 66.536029 
L 152.067668 64.796406 
L 150.010586 62.857772 
L 146.784332 60.224883 
L 143.857991 57.795588 
L 142.521789 56.455663 
L 141.455115 55.069477 
L 140.811913 53.899843 
L 140.35684 52.656426 
L 140.080842 51.324785 
L 139.959233 49.521992 
L 140.068861 47.149523 
L 140.835037 37.594756 
L 140.669891 35.293814 
L 140.347629 33.535275 
L 139.834236 31.885653 
L 139.117814 30.375383 
L 138.194842 29.030733 
L 137.070096 27.872368 
L 135.756169 26.914152 
L 134.272634 26.162246 
L 132.644893 25.614572 
L 130.902776 25.260662 
L 128.614216 25.061689 
L 126.264092 25.083381 
L 122.990889 25.354182 
L 117.010418 25.92199 
L 115.153989 25.873982 
L 113.453837 25.590948 
L 112.196164 25.167561 
L 111.015052 24.556922 
L 109.892905 23.757968 
L 108.542098 22.508739 
L 106.941365 20.695358 
L 103.547032 16.481525 
L 103.547032 16.481525 
" clip-path="url(#p4d458288eb)" style="fill: none; stroke: #9932cc; stroke-width: 1.8; stroke-linecap: square"/>
   </g>
   <g id="line2d_2">
    <path d="M 98.992219 39.380115 
L 97.779401 37.122471 
L 96.782468 35.672976 
L 95.681153 34.45906 
L 94.735664 33.707874 
L 93.74656 33.18484 
L 92.729633 32.910709 
L 91.702539 32.896389 
L 90.683617 33.142451 
L 89.690658 33.639101 
L 88.739711 34.366627 
L 87.629894 35.556175 
L 86.623449 36.988386 
L 85.560053 38.905325 
L 84.225917 41.847412 
L 82.818742 44.874399 
L 82.158071 45.856541 
L 81.424637 46.534273 
L 80.759088 46.848572 
L 80.005332 46.965069 
L 78.920995 46.855329 
L 77.397356 46.413257 
L 73.348283 44.842598 
L 70.908731 44.04109 
L 68.817504 43.590539 
L 67.159432 43.465384 
L 65.935046 43.562036 
L 64.834882 43.848969 
L 63.885828 44.331527 
L 63.109426 45.00672 
L 62.52063 45.863629 
L 62.12684 46.884177 
L 61.927295 48.044229 
L 61.912849 49.31495 
L 62.12791 51.010084 
L 62.65916 53.114466 
L 63.636286 55.862283 
L 65.160682 59.961801 
L 65.381928 61.119224 
L 65.335327 62.113166 
L 65.080709 62.80335 
L 64.623752 63.416577 
L 63.771808 64.103951 
L 62.373968 64.868028 
L 55.174609 68.347559 
L 53.776251 69.371536 
L 52.633433 70.496782 
L 51.950755 71.457439 
L 51.503722 72.457044 
L 51.310091 73.479101 
L 51.37757 74.50561 
L 51.703472 75.518271 
L 52.274833 76.499712 
L 53.069007 77.43466 
L 54.326658 78.519853 
L 55.806464 79.499019 
L 57.750062 80.530388 
L 61.271933 82.089079 
L 63.362283 83.101218 
L 64.329853 83.764527 
L 64.991856 84.50267 
L 65.293545 85.173287 
L 65.398063 85.933012 
L 65.275095 87.025606 
L 64.82094 88.559378 
L 62.193539 96.1197 
L 61.934531 97.830619 
L 61.928955 99.430828 
L 62.131486 100.588912 
L 62.528339 101.607074 
L 63.120144 102.461265 
L 63.899377 103.133513 
L 64.850974 103.613016 
L 65.953298 103.896912 
L 67.179389 103.990679 
L 68.838881 103.862322 
L 70.578848 103.503227 
L 72.681838 102.854338 
L 76.268423 101.466649 
L 78.455703 100.71067 
L 79.604694 100.501662 
L 80.405871 100.526977 
L 81.112321 100.744244 
L 81.738627 101.163107 
L 82.303136 101.783539 
L 82.9538 102.826593 
L 83.839182 104.708636 
L 85.908108 109.225036 
L 87.025415 111.082516 
L 88.075923 112.424431 
L 89.223902 113.491758 
L 90.198365 114.103283 
L 91.206852 114.472575 
L 92.232273 114.584952 
L 93.2564 114.435937 
L 94.261095 114.031465 
L 95.229519 113.387611 
L 96.147276 112.529856 
L 97.206916 111.208914 
L 98.335748 109.366492 
L 99.460841 107.062816 
L 101.694332 102.256653 
L 102.372437 101.363177 
L 102.974263 100.871357 
L 103.650011 100.582256 
L 104.415752 100.489657 
L 105.516632 100.625734 
L 107.06052 101.091773 
L 114.289564 103.636848 
L 116.011445 103.929656 
L 117.632384 103.97598 
L 118.813617 103.809133 
L 119.860009 103.449015 
L 120.746514 102.89343 
L 121.453927 102.148409 
L 121.970035 101.227665 
L 122.290444 100.15169 
L 122.419056 98.946554 
L 122.329569 97.304781 
L 122.001575 95.572695 
L 121.376593 93.466606 
L 120.109452 90.151554 
L 119.194214 87.619281 
L 118.929931 86.230246 
L 118.966785 85.43533 
L 119.196467 84.73436 
L 119.628032 84.112487 
L 120.449467 83.417874 
L 121.815595 82.650778 
L 125.10504 81.201763 
L 127.73795 79.936482 
L 129.586929 78.812591 
L 130.916936 77.756854 
L 131.968662 76.604485 
L 132.565662 75.627434 
L 132.919224 74.617369 
L 133.015287 73.59149 
L 132.850025 72.568054 
L 132.430019 71.565152 
L 131.771957 70.599504 
L 130.901875 69.685318 
L 129.568872 68.630885 
L 127.717742 67.508641 
L 125.412519 66.390371 
L 120.63695 64.161144 
L 119.758517 63.479761 
L 119.279365 62.873855 
L 119.002827 62.192911 
L 118.922086 61.42111 
L 119.07115 60.311916 
L 119.548873 58.757929 
L 122.006923 51.861366 
L 122.332265 50.130003 
L 122.41847 48.489772 
L 122.286934 47.28643 
L 121.963475 46.212693 
L 121.444323 45.294553 
L 120.733998 44.552406 
L 119.844831 43.999849 
L 118.796126 43.64279 
L 117.61301 43.478901 
L 115.990408 43.528582 
L 114.267681 43.824151 
L 112.160139 44.423246 
L 109.132477 45.558866 
L 105.988527 46.711498 
L 104.822658 46.944845 
L 103.820899 46.912651 
L 103.125352 46.670517 
L 102.507839 46.226254 
L 101.816897 45.389535 
L 101.051376 44.007477 
L 99.451611 40.372593 
L 98.992219 39.380115 
L 98.992219 39.380115 
" clip-path="url(#p4d458288eb)" style="fill: none; stroke: #9932cc; stroke-width: 1.8; stroke-linecap: square"/>
   </g>
  </g>
  <g id="axes_2">
   <g id="text_1">
    <path d="M 14.8525 148.372925 
L 32.096875 148.372925 
L 32.096875 153.2073 
L 21.243437 153.2073 
L 21.243437 157.81855 
L 31.454062 157.81855 
L 31.454062 162.652925 
L 21.243437 162.652925 
L 21.243437 173.16105 
L 14.8525 173.16105 
L 14.8525 148.372925 
z
M 35.910586 165.920112 
L 35.910586 154.5673 
L 41.887148 154.5673 
L 41.887148 156.426675 
Q 41.887148 157.935425 41.871211 160.2198 
Q 41.855273 162.504175 41.855273 163.263862 
Q 41.855273 165.505737 41.972148 166.493862 
Q 42.089023 167.481988 42.370586 167.93355 
Q 42.731836 168.512612 43.321523 168.831362 
Q 43.911211 169.1448 44.676211 169.1448 
Q 46.535586 169.1448 47.598086 167.715737 
Q 48.660586 166.286675 48.660586 163.7473 
L 48.660586 154.5673 
L 54.605273 154.5673 
L 54.605273 173.16105 
L 48.660586 173.16105 
L 48.660586 170.472925 
Q 47.316523 172.09855 45.813086 172.874175 
Q 44.309648 173.644487 42.503398 173.644487 
Q 39.278711 173.644487 37.594648 171.668237 
Q 35.910586 169.691987 35.910586 165.920112 
z
M 59.403789 154.5673 
L 75.622852 154.5673 
L 75.622852 158.716363 
L 65.826602 168.91105 
L 75.622852 168.91105 
L 75.622852 173.16105 
L 58.989414 173.16105 
L 58.989414 169.011987 
L 68.780352 158.8173 
L 59.403789 158.8173 
L 59.403789 154.5673 
z
M 79.192852 154.5673 
L 95.411914 154.5673 
L 95.411914 158.716363 
L 85.615664 168.91105 
L 95.411914 168.91105 
L 95.411914 173.16105 
L 78.778477 173.16105 
L 78.778477 169.011987 
L 88.569414 158.8173 
L 79.192852 158.8173 
L 79.192852 154.5673 
z
M 97.451914 154.5673 
L 103.396602 154.5673 
L 108.395664 167.184487 
L 112.645664 154.5673 
L 118.585039 154.5673 
L 110.765039 174.919488 
Q 109.590977 178.0273 108.018477 179.2598 
Q 106.451289 180.497613 103.880039 180.497613 
L 100.442852 180.497613 
L 100.442852 176.598237 
L 102.302227 176.598237 
Q 103.810977 176.598237 104.496289 176.1148 
Q 105.186914 175.636675 105.569414 174.388238 
L 105.739414 173.872925 
L 97.451914 154.5673 
z
M 133.645312 152.559175 
Q 130.723437 152.559175 129.11375 154.71605 
Q 127.504063 156.872925 127.504063 160.79355 
Q 127.504063 164.692925 129.11375 166.855112 
Q 130.723437 169.011987 133.645312 169.011987 
Q 136.583125 169.011987 138.192813 166.855112 
Q 139.8025 164.692925 139.8025 160.79355 
Q 139.8025 156.872925 138.192813 154.71605 
Q 136.583125 152.559175 133.645312 152.559175 
z
M 133.645312 147.926675 
Q 139.621875 147.926675 143.005937 151.347925 
Q 146.395312 154.763862 146.395312 160.79355 
Q 146.395312 166.801987 143.005937 170.223237 
Q 139.621875 173.644487 133.645312 173.644487 
Q 127.684687 173.644487 124.29 170.223237 
Q 120.895313 166.801987 120.895313 160.79355 
Q 120.895313 154.763862 124.29 151.347925 
Q 127.684687 147.926675 133.645312 147.926675 
z
M 168.47207 149.153863 
L 168.47207 154.402612 
Q 166.43207 153.488862 164.487695 153.026675 
Q 162.548633 152.559175 160.82207 152.559175 
Q 158.532383 152.559175 157.432695 153.191362 
Q 156.33832 153.818237 156.33832 155.146362 
Q 156.33832 156.145112 157.076758 156.702925 
Q 157.815195 157.255425 159.75957 157.653863 
L 162.47957 158.20105 
Q 166.612695 159.035112 168.355195 160.7298 
Q 170.103008 162.419175 170.103008 165.542925 
Q 170.103008 169.638862 167.669883 171.641675 
Q 165.236758 173.644487 160.237695 173.644487 
Q 157.884258 173.644487 155.50957 173.192925 
Q 153.134883 172.746675 150.760195 171.8648 
L 150.760195 166.472612 
Q 153.134883 167.731675 155.350195 168.374487 
Q 157.565508 169.011987 159.626758 169.011987 
Q 161.719883 169.011987 162.830195 168.31605 
Q 163.940508 167.6148 163.940508 166.31855 
Q 163.940508 165.160425 163.186133 164.528237 
Q 162.431758 163.89605 160.173945 163.396675 
L 157.69832 162.849487 
Q 153.97957 162.052612 152.25832 160.310113 
Q 150.542383 158.567612 150.542383 155.613862 
Q 150.542383 151.91105 152.933008 149.918862 
Q 155.323633 147.926675 159.807383 147.926675 
Q 161.852695 147.926675 164.00957 148.2348 
Q 166.166445 148.542925 168.47207 149.153863 
z
" style="fill-opacity: 0; stroke: #9932cc; stroke-width: 1.8"/>
    <path d="M 14.8525 148.372925 
L 32.096875 148.372925 
L 32.096875 153.2073 
L 21.243437 153.2073 
L 21.243437 157.81855 
L 31.454062 157.81855 
L 31.454062 162.652925 
L 21.243437 162.652925 
L 21.243437 173.16105 
L 14.8525 173.16105 
L 14.8525 148.372925 
z
M 35.910586 165.920112 
L 35.910586 154.5673 
L 41.887148 154.5673 
L 41.887148 156.426675 
Q 41.887148 157.935425 41.871211 160.2198 
Q 41.855273 162.504175 41.855273 163.263862 
Q 41.855273 165.505737 41.972148 166.493862 
Q 42.089023 167.481988 42.370586 167.93355 
Q 42.731836 168.512612 43.321523 168.831362 
Q 43.911211 169.1448 44.676211 169.1448 
Q 46.535586 169.1448 47.598086 167.715737 
Q 48.660586 166.286675 48.660586 163.7473 
L 48.660586 154.5673 
L 54.605273 154.5673 
L 54.605273 173.16105 
L 48.660586 173.16105 
L 48.660586 170.472925 
Q 47.316523 172.09855 45.813086 172.874175 
Q 44.309648 173.644487 42.503398 173.644487 
Q 39.278711 173.644487 37.594648 171.668237 
Q 35.910586 169.691987 35.910586 165.920112 
z
M 59.403789 154.5673 
L 75.622852 154.5673 
L 75.622852 158.716363 
L 65.826602 168.91105 
L 75.622852 168.91105 
L 75.622852 173.16105 
L 58.989414 173.16105 
L 58.989414 169.011987 
L 68.780352 158.8173 
L 59.403789 158.8173 
L 59.403789 154.5673 
z
M 79.192852 154.5673 
L 95.411914 154.5673 
L 95.411914 158.716363 
L 85.615664 168.91105 
L 95.411914 168.91105 
L 95.411914 173.16105 
L 78.778477 173.16105 
L 78.778477 169.011987 
L 88.569414 158.8173 
L 79.192852 158.8173 
L 79.192852 154.5673 
z
M 97.451914 154.5673 
L 103.396602 154.5673 
L 108.395664 167.184487 
L 112.645664 154.5673 
L 118.585039 154.5673 
L 110.765039 174.919488 
Q 109.590977 178.0273 108.018477 179.2598 
Q 106.451289 180.497613 103.880039 180.497613 
L 100.442852 180.497613 
L 100.442852 176.598237 
L 102.302227 176.598237 
Q 103.810977 176.598237 104.496289 176.1148 
Q 105.186914 175.636675 105.569414 174.388238 
L 105.739414 173.872925 
L 97.451914 154.5673 
z
M 133.645312 152.559175 
Q 130.723437 152.559175 129.11375 154.71605 
Q 127.504063 156.872925 127.504063 160.79355 
Q 127.504063 164.692925 129.11375 166.855112 
Q 130.723437 169.011987 133.645312 169.011987 
Q 136.583125 169.011987 138.192813 166.855112 
Q 139.8025 164.692925 139.8025 160.79355 
Q 139.8025 156.872925 138.192813 154.71605 
Q 136.583125 152.559175 133.645312 152.559175 
z
M 133.645312 147.926675 
Q 139.621875 147.926675 143.005937 151.347925 
Q 146.395312 154.763862 146.395312 160.79355 
Q 146.395312 166.801987 143.005937 170.223237 
Q 139.621875 173.644487 133.645312 173.644487 
Q 127.684687 173.644487 124.29 170.223237 
Q 120.895313 166.801987 120.895313 160.79355 
Q 120.895313 154.763862 124.29 151.347925 
Q 127.684687 147.926675 133.645312 147.926675 
z
M 168.47207 149.153863 
L 168.47207 154.402612 
Q 166.43207 153.488862 164.487695 153.026675 
Q 162.548633 152.559175 160.82207 152.559175 
Q 158.532383 152.559175 157.432695 153.191362 
Q 156.33832 153.818237 156.33832 155.146362 
Q 156.33832 156.145112 157.076758 156.702925 
Q 157.815195 157.255425 159.75957 157.653863 
L 162.47957 158.20105 
Q 166.612695 159.035112 168.355195 160.7298 
Q 170.103008 162.419175 170.103008 165.542925 
Q 170.103008 169.638862 167.669883 171.641675 
Q 165.236758 173.644487 160.237695 173.644487 
Q 157.884258 173.644487 155.50957 173.192925 
Q 153.134883 172.746675 150.760195 171.8648 
L 150.760195 166.472612 
Q 153.134883 167.731675 155.350195 168.374487 
Q 157.565508 169.011987 159.626758 169.011987 
Q 161.719883 169.011987 162.830195 168.31605 
Q 163.940508 167.6148 163.940508 166.31855 
Q 163.940508 165.160425 163.186133 164.528237 
Q 162.431758 163.89605 160.173945 163.396675 
L 157.69832 162.849487 
Q 153.97957 162.052612 152.25832 160.310113 
Q 150.542383 158.567612 150.542383 155.613862 
Q 150.542383 151.91105 152.933008 149.918862 
Q 155.323633 147.926675 159.807383 147.926675 
Q 161.852695 147.926675 164.00957 148.2348 
Q 166.166445 148.542925 168.47207 149.153863 
z
" style="fill-opacity: 0"/>
   </g>
  </g>
 </g>
 <defs>
  <clipPath id="p4d458288eb">
   <rect x="22.1184" y="3.6864" width="140.0832" height="140.0832"/>
  </clipPath>
 </defs>
</svg>
