<svg xmlns="http://www.w3.org/2000/svg"
     viewBox="0 0 512 512" width="512" height="512"
     fill="none" stroke="#BA55D3" stroke-width="25.6"
     stroke-linecap="round" stroke-linejoin="round">
  <title>FuzzyOS</title>
  <path d="M 297.62,46.77 L 293.84,42.42 289.87,38.25 285.72,34.34 281.39,30.81 276.89,27.73 272.24,25.19 267.47,23.25 262.61,21.97 257.69,21.38 252.77,21.49 247.86,22.30 243.02,23.79 238.29,25.92 233.68,28.63 229.23,31.87 224.96,35.53 220.87,39.53 216.96,43.77 213.23,48.14 209.66,52.55 206.23,56.88 202.89,61.05 199.62,64.96 196.37,68.54 193.09,71.73 189.74,74.48 186.27,76.77 182.64,78.57 178.82,79.89 174.76,80.76 170.46,81.20 165.91,81.29 161.09,81.07 156.02,80.63 150.73,80.04 145.25,79.41 139.62,78.81 133.89,78.35 128.13,78.10 122.41,78.14 116.79,78.55 111.34,79.38 106.15,80.69 101.27,82.50 96.77,84.83 92.70,87.69 89.10,91.07 86.02,94.93 83.45,99.25 81.41,103.97 79.89,109.04 78.86,114.38 78.27,119.93 78.07,125.62 78.21,131.37 78.59,137.12 79.14,142.80 79.77,148.35 80.38,153.74 80.90,158.90 81.22,163.83 81.28,168.50 81.00,172.91 80.32,177.07 79.20,180.99 77.61,184.70 75.54,188.24 72.99,191.64 69.99,194.94 66.57,198.20 62.79,201.46 58.73,204.76 54.46,208.15 50.07,211.65 45.67,215.31 41.36,219.14 37.24,223.15 33.42,227.34 29.99,231.72 27.04,236.25 24.64,240.94 22.87,245.74 21.75,250.62 21.34,255.54 21.62,260.46 22.61,265.35 24.26,270.17 26.55,274.88 29.40,279.45 32.74,283.85 36.50,288.08 40.57,292.13 44.85,295.99 49.24,299.67 53.64,303.21 57.94,306.61 62.05,309.93 65.89,313.19 69.38,316.45 72.46,319.74 75.10,323.12 77.26,326.62 78.94,330.30 80.15,334.17 80.90,338.29 81.26,342.65 81.26,347.27 80.98,352.15 80.49,357.28 79.89,362.62 79.25,368.15 78.68,373.81 78.26,379.55 78.08,385.30 78.20,391.01 78.71,396.59 79.66,401.98 81.09,407.10 83.03,411.89 85.50,416.29 88.49,420.25 91.99,423.72 95.97,426.67 100.39,429.11 105.21,431.01 110.35,432.41 115.75,433.33 121.34,433.81 127.05,433.92 132.81,433.72 138.55,433.29 144.20,432.71 149.72,432.07 155.05,431.47 160.16,431.00 165.02,430.73 169.63,430.75 173.98,431.13 178.07,431.91 181.94,433.15 185.60,434.86 189.10,437.05 192.47,439.72 195.76,442.83 199.01,446.34 202.28,450.20 205.60,454.32 209.01,458.63 212.55,463.03 216.25,467.42 220.12,471.69 224.18,475.75 228.42,479.48 232.84,482.80 237.41,485.61 242.13,487.86 246.95,489.47 251.84,490.42 256.77,490.66 261.69,490.20 266.57,489.04 271.36,487.22 276.03,484.79 280.56,481.81 284.93,478.35 289.11,474.51 293.11,470.38 296.92,466.06 300.57,461.65 304.07,457.27 307.45,453.01 310.75,448.96 314.01,445.20 317.27,441.81 320.57,438.83 323.98,436.31 327.52,434.27 331.24,432.71 335.18,431.62 339.35,430.97 343.78,430.71 348.47,430.79 353.41,431.13 358.60,431.65 363.99,432.27 369.55,432.90 375.24,433.44 380.99,433.81 386.74,433.92 392.42,433.71 397.96,433.09 403.29,432.03 408.34,430.47 413.03,428.40 417.32,425.81 421.16,422.69 424.50,419.06 427.33,414.96 429.63,410.44 431.41,405.54 432.69,400.32 433.49,394.87 433.87,389.24 433.90,383.51 433.63,377.75 433.15,372.03 432.55,366.40 431.92,360.93 431.34,355.65 430.91,350.60 430.71,345.80 430.81,341.26 431.29,336.98 432.18,332.94 433.53,329.13 435.36,325.51 437.67,322.05 440.45,318.70 443.67,315.43 447.28,312.18 451.21,308.90 455.39,305.56 459.73,302.12 464.13,298.54 468.50,294.80 472.73,290.88 476.71,286.78 480.35,282.49 483.55,278.03 486.23,273.42 488.33,268.68 489.77,263.83 490.54,258.93 490.61,254.00 489.97,249.08 488.65,244.23 486.67,239.46 484.10,234.82 480.99,230.33 477.42,226.01 473.50,221.87 469.31,217.92 464.96,214.15 460.55,210.54 456.19,207.08 451.97,203.72 447.99,200.43 444.32,197.18 441.03,193.91 438.16,190.59 435.76,187.15 433.84,183.57 432.40,179.79 431.42,175.80 430.87,171.56 430.70,167.07 430.85,162.32 431.25,157.31 431.80,152.08 432.43,146.64 433.05,141.04 433.55,135.33 433.87,129.57 433.90,123.83 433.59,118.18 432.87,112.68 431.69,107.42 430.01,102.46 427.80,97.85 425.07,93.67 421.83,89.96 418.08,86.74 413.87,84.04 409.24,81.87 404.26,80.22 398.98,79.07 393.47,78.38 387.81,78.09 382.07,78.15 376.31,78.47 370.61,78.99 365.02,79.61 359.59,80.24 354.37,80.78 349.38,81.16 344.64,81.30 340.16,81.11 335.94,80.53 331.97,79.53 328.21,78.06 324.63,76.10 321.20,73.67 317.88,70.78 314.62,67.46 311.36,63.77 308.07,59.77 304.71,55.54 301.24,51.17 297.62,46.77 Z"/>
  <path d="M 280.97,130.46 L 278.95,126.45 276.76,122.57 274.38,118.92 271.83,115.60 269.12,112.71 266.25,110.31 263.27,108.48 260.20,107.27 257.08,106.71 253.94,106.81 250.83,107.58 247.79,108.99 244.84,111.00 242.02,113.56 239.35,116.60 236.86,120.03 234.54,123.76 232.40,127.69 230.43,131.72 228.61,135.75 226.92,139.67 225.32,143.38 223.77,146.80 222.24,149.86 220.66,152.49 219.00,154.64 217.21,156.29 215.25,157.43 213.07,158.05 210.65,158.18 207.97,157.85 205.02,157.13 201.78,156.07 198.29,154.76 194.54,153.27 190.59,151.70 186.47,150.14 182.23,148.67 177.94,147.39 173.66,146.37 169.46,145.69 165.41,145.40 161.59,145.55 158.06,146.18 154.89,147.31 152.12,148.93 149.80,151.05 147.96,153.63 146.61,156.63 145.77,160.01 145.41,163.71 145.51,167.66 146.02,171.80 146.91,176.06 148.08,180.35 149.48,184.62 151.01,188.80 152.59,192.84 154.13,196.68 155.53,200.29 156.70,203.64 157.58,206.71 158.09,209.51 158.16,212.04 157.76,214.32 156.85,216.37 155.43,218.24 153.49,219.95 151.07,221.55 148.19,223.10 144.92,224.64 141.32,226.21 137.48,227.86 133.49,229.62 129.45,231.52 125.46,233.58 121.63,235.82 118.05,238.24 114.83,240.83 112.06,243.59 109.80,246.48 108.12,249.49 107.07,252.58 106.67,255.71 106.94,258.84 107.87,261.94 109.44,264.96 111.59,267.88 114.28,270.66 117.42,273.29 120.94,275.74 124.73,278.01 128.69,280.11 132.73,282.04 136.74,283.82 140.62,285.49 144.27,287.07 147.60,288.61 150.56,290.15 153.07,291.74 155.10,293.43 156.63,295.26 157.63,297.28 158.12,299.51 158.13,301.99 157.71,304.74 156.89,307.77 155.77,311.07 154.40,314.63 152.89,318.43 151.31,322.43 149.76,326.59 148.33,330.84 147.11,335.14 146.16,339.40 145.57,343.57 145.39,347.57 145.66,351.32 146.42,354.76 147.67,357.84 149.42,360.50 151.65,362.71 154.34,364.42 157.44,365.64 160.91,366.37 164.68,366.61 168.68,366.40 172.86,365.79 177.13,364.83 181.43,363.59 185.68,362.15 189.83,360.59 193.82,359.02 197.60,357.51 201.15,356.16 204.43,355.04 207.44,354.25 210.17,353.85 212.64,353.89 214.85,354.42 216.86,355.45 218.68,357.01 220.36,359.07 221.94,361.61 223.49,364.59 225.03,367.95 226.61,371.62 228.29,375.51 230.08,379.52 232.02,383.56 234.12,387.52 236.41,391.29 238.87,394.79 241.51,397.90 244.30,400.56 247.22,402.68 250.25,404.21 253.36,405.10 256.49,405.33 259.62,404.89 262.70,403.80 265.70,402.08 268.59,399.78 271.34,396.98 273.92,393.73 276.33,390.14 278.55,386.29 280.61,382.30 282.50,378.26 284.25,374.27 285.89,370.45 287.46,366.87 288.99,363.62 290.54,360.77 292.16,358.37 293.88,356.47 295.75,355.08 297.81,354.20 300.11,353.83 302.65,353.93 305.47,354.46 308.57,355.36 311.93,356.56 315.56,357.97 319.41,359.51 323.46,361.09 327.64,362.61 331.92,364.00 336.21,365.16 340.46,366.02 344.59,366.51 348.53,366.58 352.21,366.19 355.57,365.32 358.55,363.94 361.10,362.07 363.18,359.72 364.78,356.92 365.87,353.72 366.47,350.18 366.60,346.34 366.28,342.28 365.58,338.08 364.54,333.80 363.24,329.50 361.77,325.27 360.20,321.16 358.63,317.22 357.15,313.49 355.85,310.01 354.81,306.79 354.12,303.85 353.82,301.19 353.98,298.79 354.63,296.63 355.79,294.67 357.48,292.89 359.66,291.24 362.32,289.67 365.40,288.13 368.85,286.58 372.57,284.98 376.50,283.28 380.53,281.45 384.56,279.47 388.48,277.32 392.20,274.99 395.61,272.49 398.61,269.81 401.14,266.98 403.12,264.03 404.49,260.97 405.22,257.86 405.28,254.73 404.68,251.61 403.42,248.54 401.56,245.56 399.13,242.71 396.20,240.00 392.86,237.46 389.20,235.10 385.30,232.92 381.29,230.91 377.25,229.05 373.30,227.33 369.53,225.71 366.02,224.16 362.87,222.62 360.13,221.06 357.85,219.43 356.07,217.67 354.81,215.75 354.06,213.64 353.81,211.28 354.03,208.67 354.66,205.78 355.63,202.62 356.89,199.18 358.34,195.50 359.90,191.59 361.48,187.51 362.98,183.30 364.31,179.01 365.41,174.72 366.18,170.49 366.57,166.41 366.53,162.52 366.02,158.92 365.02,155.65 363.52,152.77 361.53,150.34 359.06,148.37 356.16,146.90 352.87,145.93 349.24,145.45 345.34,145.44 341.24,145.86 337.01,146.65 332.72,147.76 328.44,149.11 324.23,150.62 320.16,152.20 316.26,153.75 312.59,155.19 309.18,156.44 306.03,157.39 303.16,158.00 300.56,158.19 298.23,157.91 296.12,157.13 294.21,155.83 292.47,154.02 290.84,151.72 289.28,148.95 287.75,145.77 286.19,142.25 284.56,138.46 282.83,134.50 280.97,130.46 Z"/>
</svg>
